<?xml version="1.0" standalone="no"?><!DOCTYPE svg PUBLIC "-//W3C//DTD SVG 1.1//EN" "http://www.w3.org/Graphics/SVG/1.1/DTD/svg11.dtd"><svg width="64" height="64" viewBox="0 0 64 64" version="1.1" xmlns="http://www.w3.org/2000/svg" xmlns:xlink="http://www.w3.org/1999/xlink"><defs><style type="text/css"><![CDATA[
@font-face { font-family: ifont; src: url("//at.alicdn.com/t/font_1442373896_4754455.eot?#iefix") format("embedded-opentype"), url("//at.alicdn.com/t/font_1442373896_4754455.woff") format("woff"), url("//at.alicdn.com/t/font_1442373896_4754455.ttf") format("truetype"), url("//at.alicdn.com/t/font_1442373896_4754455.svg#ifont") format("svg"); }

]]></style></defs><g class="transform-group"><g transform="scale(0.0625, 0.0625)"><path d="M65.892824 861.255809c2.176677-0.040934 4.354377-0.116663 6.531053-0.116663 292.909867-0.00614 585.819734-0.005117 878.7296-0.005117 2.141883 0 4.284789 0 6.680463 0 0 21.884453 0 43.319653 0 65.294161-1.449071 0.065495-2.97387 0.194438-4.49867 0.194438-294.508348 0.00921-589.014649 0.008187-883.521973 0.008187-1.305801 0-2.612626-0.017397-3.919451-0.025584C65.892824 904.82209 65.892824 883.038949 65.892824 861.255809zM65.892824 670.434842c42.801835-41.980081 85.60367-83.960161 128.875225-126.400752 51.523892 42.28811 104.683106 85.918863 158.244498 129.880159 95.239583-118.336712 190.311336-236.464659 286.20996-355.622102 63.745824 64.526644 127.176455 128.735025 190.752402 193.090769 43.302256-31.0793 85.3202-61.236557 128.117942-91.954613 0 3.135561 0 5.385919 0 7.635254 0 16.117846 0.068565 32.237738-0.101312 48.353537-0.01842 1.718214-0.949674 4.057604-2.259568 5.041048-41.325133 31.023016-82.750555 61.914018-124.604763 93.157055-63.847136-63.54934-127.686086-127.090493-191.88628-190.991867-94.449553 116.562214-188.640197 232.804117-283.159338 349.45127C301.732213 689.434456 247.651979 647.007169 192.417401 603.67319c-1.131831 1.663976-1.987356 3.429264-3.287017 4.759625-39.688788 40.600598-79.419534 81.160261-119.153349 121.717878-1.315012 1.343665-2.720078 2.596252-4.084211 3.890797C65.892824 712.839615 65.892824 691.63774 65.892824 670.434842zM544.130286 829.137803c0-2.121416 0-3.828372 0-5.534305 0-95.984586 0.01228-191.970195-0.053214-287.95478-0.002047-3.218452 0.781843-5.745117 2.831624-8.290201 29.877881-37.080255 59.66059-74.235216 89.468883-111.370732 0.815614-1.016192 1.671139-2.00066 2.774316-3.319765 0.989585 0.866782 1.967912 1.616901 2.822414 2.487777 19.435564 19.785551 38.905921 39.540402 58.198215 59.465129 1.595411 1.648625 2.797853 4.475133 2.7999 6.755168 0.13406 114.426471 0.104382 228.853966 0.181134 343.280437 0.002047 3.443591-0.725559 4.80056-4.51095 4.792373-50.097335-0.117686-100.195693-0.077775-150.294051-0.086985C547.196258 829.362941 546.04396 829.243209 544.130286 829.137803zM925.7845 535.822688c0 98.301462 0 195.559102 0 293.275205-1.850226 0.098242-3.528529 0.264026-5.207855 0.265049-49.373822 0.014327-98.747645-0.047074-148.119421 0.111546-4.427035 0.014327-5.550679-1.182999-5.544539-5.574216 0.128943-91.921865 0.097219-183.842707 0.097219-275.764572 0-1.40302 0-2.80604 0-5.632547 21.939714 22.349056 42.917474 43.717738 64.090695 65.283927C862.602544 583.843635 893.853768 560.091558 925.7845 535.822688zM702.857808 97.368162c0 84.273308 0 168.262123 0 251.56222-21.396312-20.505993-43.026973-41.236101-64.992271-62.286519-30.510315 37.792511-61.632595 76.344351-93.376053 115.664731 0-102.189189 0-203.395957 0-304.940432C597.088922 97.368162 649.707804 97.368162 702.857808 97.368162zM257.046381 562.543518c-21.60303-17.357129-42.687219-34.297752-64.085578-51.490121-31.442591 31.444638-62.671301 62.674371-94.561099 94.567239 0-95.85769 0-190.68179 0-285.801641 52.835833 0 105.587752 0 158.646677 0C257.046381 400.528979 257.046381 481.111044 257.046381 562.543518zM830.890811 480.77743c-2.939076-3.033225-5.639711-5.859732-8.38128-8.644282-17.520866-17.792055-35.09904-35.526802-52.490963-53.442683-1.603598-1.651695-2.878698-4.440339-2.885862-6.706047-0.16169-50.521004-0.125873-101.040984-0.114616-151.563011 0-1.41837 0.130989-2.837764 0.215928-4.537557 52.884954 0 105.50179 0 158.753106 0 0 1.619971 0 3.157051 0 4.693107 0 48.92457 0.028654 97.848116-0.105406 146.771662-0.005117 1.975076-0.981398 4.712551-2.459123 5.805495-30.107113 22.255931-60.352378 44.323564-90.574106 66.422922C832.386956 479.916788 831.871185 480.180814 830.890811 480.77743zM256.959396 829.110173c-52.842997 0-105.49565 0-158.664074 0-0.064471-1.447024-0.180111-2.839811-0.181134-4.233621-0.011257-29.325269-0.044004-58.651562 0.079822-87.976831 0.007163-1.793942 0.809474-4.04123 2.036477-5.309167 30.178747-31.199033 60.463924-62.29573 90.737843-93.40266 0.692812-0.711232 1.478748-1.333432 2.458099-2.209424 10.588657 8.52455 21.078049 16.964161 31.56437 25.408888 9.948037 8.011849 19.937008 15.972529 29.780662 24.111274 1.25668 1.038706 2.469356 3.013781 2.47345 4.558024 0.121779 45.730678 0.089032 91.461355 0.070612 137.192033C257.3145 827.666218 257.160997 828.083747 256.959396 829.110173zM480.322037 612.105637c0 1.398927 0 2.797853 0 4.197803 0 69.096949 0 138.192874 0 207.2888 0 5.76763-0.00614 5.779911-5.562959 5.779911-49.354379 0.00307-98.708757 0.002047-148.063136 0.002047-1.585177 0-3.170355 0-5.143384 0 0-29.985333 0-59.653426 0-90.186255 11.248721 9.045437 22.21295 17.862667 33.69602 27.097425C396.68935 714.659141 437.965362 663.236561 479.241374 611.812958 479.602618 611.910177 479.961816 612.007395 480.322037 612.105637zM352.945005 639.624684c-10.25709-8.224706-20.350443-16.263162-30.339414-24.427491-0.835058-0.681555-1.377436-2.215564-1.37846-3.353535-0.046051-54.311512-0.017397-108.624047 0.013304-162.935559 0-0.273236 0.14634-0.546472 0.3111-1.124667 52.681307 0 105.446529 0 158.771526 0 0 8.165352-0.429809 16.286699 0.132013 24.339482 0.47893 6.851364-1.72333 11.970187-6.018352 17.25377-39.471837 48.557185-78.688858 97.322111-117.983654 146.023589C355.36831 636.743939 354.247736 638.057928 352.945005 639.624684z" fill="#56abe4"></path></g></g></svg>