<?xml version="1.0" standalone="no"?><!DOCTYPE svg PUBLIC "-//W3C//DTD SVG 1.1//EN" "http://www.w3.org/Graphics/SVG/1.1/DTD/svg11.dtd"><svg width="64" height="64" viewBox="0 0 64 64" version="1.1" xmlns="http://www.w3.org/2000/svg" xmlns:xlink="http://www.w3.org/1999/xlink"><defs><style type="text/css"><![CDATA[
@font-face { font-family: ifont; src: url("//at.alicdn.com/t/font_1442373896_4754455.eot?#iefix") format("embedded-opentype"), url("//at.alicdn.com/t/font_1442373896_4754455.woff") format("woff"), url("//at.alicdn.com/t/font_1442373896_4754455.ttf") format("truetype"), url("//at.alicdn.com/t/font_1442373896_4754455.svg#ifont") format("svg"); }

]]></style></defs><g class="transform-group"><g transform="scale(0.0625, 0.0625)"><path d="M399.0241 352.8612c0 0-54.6355-52.5507-128.7711-9.6297-66.3347 40.9713-54.6222 115.9598-54.6222 115.9598s-147.3536 28.6269-147.3536 178.8559c3.3085 150.017 160.0328 151.5264 160.0328 151.5264l312.2493-0.4731L395.6869 658.1494l80.2765 0.8724 0.0133-158.6668 102.9161-0.7004 0.7373 158.9309 78.4292 1.1151L540.5594 789.5736h264.269824c0 0 145.8606 0.1485 166.3457-142.5623 9.7567-156.0791-140.9823-186.8421-140.9823-186.8421s17.153-231.0472-194.5272-257.3865C454.2259 184.2504 399.0241 352.8612 399.0241 352.8612z" fill="#56abe4"></path></g></g></svg>