<?xml version="1.0" standalone="no"?><!DOCTYPE svg PUBLIC "-//W3C//DTD SVG 1.1//EN" "http://www.w3.org/Graphics/SVG/1.1/DTD/svg11.dtd"><svg width="64" height="64" viewBox="0 0 64 64" version="1.1" xmlns="http://www.w3.org/2000/svg" xmlns:xlink="http://www.w3.org/1999/xlink"><defs><style type="text/css"><![CDATA[
@font-face { font-family: ifont; src: url("//at.alicdn.com/t/font_1442373896_4754455.eot?#iefix") format("embedded-opentype"), url("//at.alicdn.com/t/font_1442373896_4754455.woff") format("woff"), url("//at.alicdn.com/t/font_1442373896_4754455.ttf") format("truetype"), url("//at.alicdn.com/t/font_1442373896_4754455.svg#ifont") format("svg"); }

]]></style></defs><g class="transform-group"><g transform="scale(0.0625, 0.0625)"><path d="M512.220011 63.636343c61.428048 0 119.373785 11.715833 173.835164 35.147498s101.958136 55.570643 142.488225 96.416933 72.511477 88.500637 95.942119 142.963039 35.147498 112.407116 35.147498 173.835164c0 62.061474-11.715833 120.323413-35.147498 174.785815s-55.412031 101.958136-95.942119 142.488225-88.025822 72.510454-142.488225 95.942119c-54.461379 23.431665-112.407116 35.147498-173.835164 35.147498-62.061474 0-120.323413-11.715833-174.785815-35.147498-54.461379-23.431665-101.958136-55.412031-142.488225-95.942119s-72.511477-88.025822-95.942119-142.488225c-23.431665-54.461379-35.147498-112.724341-35.147498-174.785815 0-61.428048 11.715833-119.373785 35.147498-173.835164s55.412031-102.116749 95.942119-142.963039 88.025822-72.985268 142.488225-96.416933S450.15956 63.636343 512.220011 63.636343zM540.718065 845.421812c17.73185 0 32.772404-6.17463 45.121664-18.523889s18.523889-27.389814 18.523889-45.121664c0-18.365276-6.17463-33.722032-18.523889-46.071292s-27.389814-18.523889-45.121664-18.523889c-18.365276 0-33.722032 6.17463-46.071292 18.523889s-18.523889 27.706015-18.523889 46.071292c0 17.73185 6.17463 32.772404 18.523889 45.121664S522.352789 845.421812 540.718065 845.421812zM601.512686 587.043137c0-8.233522 5.858428-18.048051 17.573237-29.446659 11.715833-11.398608 24.698518-25.489534 38.947034-42.271756s27.389814-36.413328 39.420825-58.895365c12.033058-22.482037 18.048051-48.921199 18.048051-79.31851 0-20.264533-3.958148-41.479717-11.873422-63.645552-7.915273-22.164812-20.423145-42.430368-37.521568-60.794621-17.099447-18.365276-39.104623-33.564443-66.019623-45.595454-26.913976-12.034081-59.370179-18.049075-97.366561-18.049075-44.329625 0-79.634712 7.757684-105.916285 23.274076s-46.229904 34.355459-59.844993 56.520271c-13.616112 22.164812-22.482037 45.121664-26.597775 68.86953s-6.17463 43.85481-6.17463 60.319807c0 15.198144 6.333242 25.965371 18.998703 32.29759 12.665461 6.333242 26.439162 9.024537 41.322128 8.073886 14.881942-0.950651 28.656667-5.382591 41.322128-13.298887s18.998703-18.523889 18.998703-31.821753c0-8.233522 0.474814-17.415648 1.424442-27.547403 0.949628-10.132778 4.115738-19.790742 9.499351-28.972868 5.382591-9.182127 13.4575-16.781198 24.222681-22.798239 10.766205-6.016017 25.647123-9.024537 44.646849-9.024537 29.764907 0 53.353139 8.233522 70.768787 24.698518s26.122961 35.779901 26.122961 57.944713c0 18.365276-6.17463 36.097126-18.523889 53.195549s-25.806759 32.772404-40.371476 47.02092c-14.564717 14.248516-28.022217 26.913976-40.371476 37.996382-12.349259 11.082406-18.523889 19.790742-18.523889 26.122961l0 69.344345c0 5.699816 6.17463 9.974166 18.523889 12.824073s25.806759 4.115738 40.371476 3.799536 28.022217-2.058892 40.371476-5.223978 18.523889-8.233522 18.523889-15.199167L601.512686 587.043137 601.512686 587.043137z" fill="#56abe4"></path></g></g></svg>