<?xml version="1.0" standalone="no"?><!DOCTYPE svg PUBLIC "-//W3C//DTD SVG 1.1//EN" "http://www.w3.org/Graphics/SVG/1.1/DTD/svg11.dtd"><svg width="64" height="64" viewBox="0 0 64 64" version="1.1" xmlns="http://www.w3.org/2000/svg" xmlns:xlink="http://www.w3.org/1999/xlink"><defs><style type="text/css"><![CDATA[
@font-face { font-family: ifont; src: url("//at.alicdn.com/t/font_1442373896_4754455.eot?#iefix") format("embedded-opentype"), url("//at.alicdn.com/t/font_1442373896_4754455.woff") format("woff"), url("//at.alicdn.com/t/font_1442373896_4754455.ttf") format("truetype"), url("//at.alicdn.com/t/font_1442373896_4754455.svg#ifont") format("svg"); }

]]></style></defs><g class="transform-group"><g transform="scale(0.0625, 0.0625)"><path d="M791.05 660.475c28.225 0 51.05-22.95 51.05-51.175 0-16.3-7.6-30.825-19.4-40.175l0.25-0.325c-39.275-30.475-82.925-55.475-130.075-73.6 60-51.625 98.175-128.11 98.175-213.66C791.05 126.06 665.35 0 510.35 0S229.675 126.06 229.675 281.535c0 85.55 38.175 162.035 98.175 213.66C136.36 568.9 0.1 754.6 0 972.7l0 0.125c0.1 28.175 22.935 51.075 51.035 51.075 28.21 0 50.935-22.9 51.035-51.075 0-225.825 183.225-409.525 408.3-409.525 92.275 0 177.225 31.2 245.625 83.175C765.15 655.125 777.475 660.475 791.05 660.475zM510.35 460.7c-98.475 0-178.6-80.375-178.6-179.16 0-98.775 80.125-179.175 178.6-179.175 98.5 0 178.625 80.4 178.625 179.175C688.975 380.325 608.85 460.7 510.35 460.7zM985.6 832l-76.8 0 0-76.8c0-21.225-17.2-38.4-38.4-38.4-21.25 0-38.4 17.175-38.4 38.4l0 76.8-76.8 0c-21.25 0-38.4 17.175-38.4 38.4 0 21.2 17.15 38.4 38.4 38.4l76.8 0 0 76.8c0 21.2 17.15 38.4 38.4 38.4 21.2 0 38.4-17.2 38.4-38.4l0-76.8 76.8 0c21.2 0 38.4-17.2 38.4-38.4C1023.995 849.175 1006.795 832 985.6 832z" fill="#56abe4"></path></g></g></svg>