<?xml version="1.0" standalone="no"?><!DOCTYPE svg PUBLIC "-//W3C//DTD SVG 1.1//EN" "http://www.w3.org/Graphics/SVG/1.1/DTD/svg11.dtd"><svg width="64" height="64" viewBox="0 0 64 64" version="1.1" xmlns="http://www.w3.org/2000/svg" xmlns:xlink="http://www.w3.org/1999/xlink"><defs><style type="text/css"><![CDATA[
@font-face { font-family: ifont; src: url("//at.alicdn.com/t/font_1442373896_4754455.eot?#iefix") format("embedded-opentype"), url("//at.alicdn.com/t/font_1442373896_4754455.woff") format("woff"), url("//at.alicdn.com/t/font_1442373896_4754455.ttf") format("truetype"), url("//at.alicdn.com/t/font_1442373896_4754455.svg#ifont") format("svg"); }

]]></style></defs><g class="transform-group"><g transform="scale(0.0625, 0.0625)"><path d="M711.232 632.672l-42.784 0-16.064-13.408c50.816-61.664 82.912-139.456 82.912-227.968 0-193.12-155.136-348.64-347.648-348.64-189.888 0-344.992 155.552-344.992 348.64s155.104 348.64 347.648 348.64c85.568 0 165.824-32.192 227.328-83.136l16.032 13.408 0 42.912 267.424 268.192 80.224-80.448-270.08-268.192zM390.336 632.672c-133.728 0-240.672-107.264-240.672-241.376s106.976-241.376 240.672-241.376c133.696 0 240.672 107.264 240.672 241.376s-106.976 241.376-240.672 241.376z" fill="#56abe4"></path></g></g></svg>