<?xml version="1.0" standalone="no"?><!DOCTYPE svg PUBLIC "-//W3C//DTD SVG 1.1//EN" "http://www.w3.org/Graphics/SVG/1.1/DTD/svg11.dtd"><svg width="64" height="64" viewBox="0 0 64 64" version="1.1" xmlns="http://www.w3.org/2000/svg" xmlns:xlink="http://www.w3.org/1999/xlink"><defs><style type="text/css"><![CDATA[
@font-face { font-family: ifont; src: url("//at.alicdn.com/t/font_1442373896_4754455.eot?#iefix") format("embedded-opentype"), url("//at.alicdn.com/t/font_1442373896_4754455.woff") format("woff"), url("//at.alicdn.com/t/font_1442373896_4754455.ttf") format("truetype"), url("//at.alicdn.com/t/font_1442373896_4754455.svg#ifont") format("svg"); }

]]></style></defs><g class="transform-group"><g transform="scale(0.0625, 0.0625)"><path d="M469.504652 815.923988 469.504652 667.750273l-93.217055 0 144.695496-176.00048 144.001695 175.304631-95.305623 0.696872 0.695848 148.173714 222.61003 0c0 0 133.564995 1.391696 165.564803-150.261259-1.387603-81.390705-1.38965-64.696488-19.476587-110.609167-26.435069-36.870746-36.868699-54.957683-101.567233-84.175121 11.129478-49.39192 11.129478-123.827213-45.217854-192.697767-56.347333-68.870554-150.262282-78.608336-198.956308-69.565379-48.697095 9.04398-118.959346 39.653115-157.219741 126.609583-27.825742-29.913287-61.913095-52.17429-132.869147-51.478442-31.304983 1.390673-97.04115 28.175713-121.736599 99.132788-8.000208 20.174482-11.82635 54.259788-2.783393 90.782609-22.956851 7.30436-51.129494 25.739221-74.782194 50.782593-23.652699 25.043373-52.524261 88.349187-36.871769 153.045675 15.652492 64.695464 54.260811 120.344902 149.740396 138.433886C275.24532 816.794821 469.504652 815.923988 469.504652 815.923988z" fill="#56abe4"></path></g></g></svg>